<svg xmlns="http://www.w3.org/2000/svg" id="vector" viewBox="197.06 24.04 802.87 946.72"><path fill="#10A2E0" d="M345.00 731.61C345.00 729.69 379.01 676.81 393.31 656.50C401.86 644.35 439.25 592.86 456.48 569.50C463.38 560.15 473.16 546.88 478.21 540.00C483.26 533.12 493.07 519.85 500.00 510.50C506.94 501.15 514.61 490.74 517.06 487.36C519.50 483.99 533.42 464.93 548.00 445.02C576.06 406.68 609.62 360.42 616.81 350.15C616.98 349.91 617.15 349.68 617.30 349.46C619.24 346.70 620.29 345.21 619.91 344.54C619.45 343.75 617.00 344.11 611.65 344.89C611.28 344.95 610.90 345.00 610.50 345.06C569.30 351.08 523.57 351.33 449.00 345.93C385.55 341.34 348.06 340.17 323.95 342.05C279.07 345.54 252.66 355.25 229.72 376.70C225.42 380.73 219.56 385.36 216.70 387.00C211.08 390.22 205.02 390.94 203.09 388.61C198.35 382.89 195.19 350.35 198.30 339.23C199.18 336.08 200.84 329.61 201.98 324.84C203.81 317.24 209.57 302.10 211.29 300.38C211.63 300.04 214.19 294.98 216.97 289.13C228.66 264.63 232.53 259.02 252.23 238.02C266.67 222.61 275.42 214.92 286.99 207.44C301.90 197.79 325.84 189.14 347.50 185.56C359.28 183.61 363.41 182.41 365.01 180.48C365.66 179.71 367.27 172.64 368.60 164.78C373.27 137.10 379.38 118.22 391.97 92.50C402.41 71.19 412.68 55.40 423.00 44.81C430.99 36.61 435.34 34.37 437.51 37.35C438.17 38.25 439.26 43.16 439.94 48.25C441.86 62.87 446.85 83.45 451.63 96.50C456.35 109.39 465.99 129.27 469.07 132.45C470.93 134.38 470.98 134.37 473.61 131.95C476.49 129.30 487.30 114.90 493.09 106.00C502.72 91.19 519.36 60.22 528.54 40.00C531.66 33.12 534.91 26.71 535.76 25.75C537.84 23.40 543.23 23.49 545.42 25.91C549.92 30.88 560.14 59.54 565.06 81.00C573.20 116.51 573.05 152.91 564.65 177.56C563.33 181.44 561.52 186.03 560.62 187.76C559.73 189.49 559.00 191.34 559.00 191.87C559.00 193.95 602.91 202.54 631.00 205.96C673.03 211.07 679.49 211.44 729.00 211.46C779.29 211.48 789.03 210.87 817.65 205.88C824.17 204.75 832.20 203.59 835.50 203.31C840.98 202.85 841.75 203.03 844.39 205.48C847.28 208.16 847.28 208.19 846.69 217.33C845.28 239.12 833.04 275.26 814.95 311.00C795.16 350.11 768.36 389.18 711.68 461.50C707.37 467.00 701.77 474.20 699.23 477.50C696.69 480.80 680.12 501.95 662.42 524.50C623.42 574.19 612.14 585.84 582.12 607.47C550.45 630.29 495.25 658.42 435.56 682.17C392.83 699.17 371.70 710.35 352.25 726.22C348.26 729.48 345.00 731.90 345.00 731.61Z" id="path_0"/><path fill="#979797" d="M904.05 790.79C899.04 793.89 893.89 796.82 888.64 799.56C870.19 809.18 852.87 815.46 832.00 820.08C822.20 822.24 820.65 822.38 821.50 821.00C821.84 820.45 823.16 820.00 824.44 820.00C827.07 820.00 847.59 809.84 861.65 801.82C851.61 807.65 839.64 813.92 831.06 817.76L823.50 821.15L828.63 820.56C831.45 820.23 839.10 818.46 845.63 816.62C866.08 810.86 885.85 802.01 904.05 790.79ZM431.12 898.23C429.42 897.84 427.95 897.54 426.75 897.35C424.69 897.02 423.00 896.32 423.00 895.80C423.00 895.29 423.79 895.11 424.75 895.40C425.60 895.66 430.65 896.23 436.54 896.74C435.86 896.70 435.18 896.66 434.50 896.62C426.37 896.18 424.13 896.12 431.12 898.23ZM506.08 922.44C488.46 916.06 471.55 910.28 457.63 905.86C471.24 910.02 486.37 915.20 506.08 922.44ZM463.25 900.02C484.85 903.83 509.79 911.14 554.00 925.97C511.32 911.66 485.00 903.97 463.25 900.02ZM874.19 794.09C887.61 785.18 900.29 775.06 911.70 764.24C900.21 775.16 887.49 785.32 874.19 794.09Z" id="path_1"/><path fill="#D2D0D1" d="M564.00 969.96C538.93 967.71 517.31 961.93 481.00 947.77C428.10 927.14 404.43 920.52 369.00 916.45C350.89 914.36 312.79 914.89 298.00 917.43C268.87 922.43 244.25 932.53 220.97 949.02C214.58 953.55 208.69 957.00 207.36 957.00C204.58 957.00 201.00 953.75 201.00 951.23C201.00 947.14 205.47 933.81 209.97 924.50C218.72 906.37 226.91 894.88 255.94 860.01C275.73 836.24 278.40 832.91 291.07 816.21C298.62 806.26 318.09 777.00 324.81 765.50C330.76 755.31 334.22 751.11 346.61 739.06C365.65 720.55 387.06 708.21 431.50 690.14C514.04 656.57 560.49 631.91 601.94 599.62C604.40 597.71 602.25 600.72 593.13 612.00C576.35 632.74 563.90 646.86 542.87 669.02C492.97 721.59 473.35 744.73 455.16 772.44C446.53 785.60 432.35 811.68 433.31 812.65C433.60 812.94 436.24 812.69 439.17 812.10C449.24 810.07 468.53 808.00 486.00 807.07C503.63 806.14 539.27 806.73 605.00 809.07C669.02 811.34 700.13 808.97 737.72 798.97C767.73 790.99 800.55 774.27 826.02 753.98C836.54 745.59 855.62 726.03 863.06 716.00C892.10 676.82 900.04 637.38 884.69 608.57C878.76 597.43 867.86 587.37 854.50 580.70C827.34 567.15 784.17 568.25 749.75 583.38C747.69 584.29 746.00 584.63 746.00 584.14C746.00 582.25 759.85 568.38 767.12 562.98C802.47 536.73 853.09 528.32 895.34 541.67C926.87 551.63 952.36 572.87 964.46 599.26C979.22 631.46 974.33 674.59 951.33 715.00C934.21 745.09 903.71 775.60 868.79 797.58C856.02 805.61 827.57 820.00 824.44 820.00C823.16 820.00 821.84 820.45 821.50 821.00C820.65 822.38 822.20 822.24 832.00 820.08C852.87 815.46 870.19 809.18 888.64 799.56C933.02 776.41 969.41 739.80 988.00 699.59C994.67 685.16 997.24 683.67 999.08 693.17C1000.42 700.12 1000.12 720.77 998.52 732.21C995.44 754.14 984.84 781.15 971.85 800.16C964.87 810.39 949.03 827.44 939.56 834.92C923.05 847.98 897.44 862.04 876.68 869.46C836.87 883.67 789.60 890.98 746.00 889.66C717.13 888.78 696.43 886.61 658.18 880.44C646.46 878.55 636.33 877.01 635.68 877.03C631.76 877.13 657.01 886.44 673.00 890.79C704.69 899.40 731.04 903.04 766.65 903.74C806.34 904.51 833.26 901.14 868.90 890.91C880.82 887.49 904.07 878.25 911.62 873.93C921.21 868.44 921.36 870.38 912.31 883.09C900.02 900.37 880.48 918.08 859.81 930.67C835.19 945.67 802.00 956.76 769.00 961.00C754.81 962.83 723.76 963.38 707.50 962.10C681.11 960.02 651.71 954.90 623.00 947.40C603.01 942.17 593.13 939.10 554.00 925.97C492.85 905.46 468.56 899.33 439.00 896.95C432.12 896.39 425.71 895.70 424.75 895.40C423.79 895.11 423.00 895.29 423.00 895.80C423.00 896.32 424.69 897.02 426.75 897.35C439.82 899.45 483.60 913.78 526.50 930.00C566.25 945.03 596.19 955.77 607.41 959.02C612.86 960.60 617.66 962.46 618.09 963.14C619.22 964.97 617.42 967.68 614.60 968.39C605.25 970.73 581.03 971.49 564.00 969.96Z" id="path_2"/></svg>